<svg width="29" height="26" viewBox="0 0 37 34" fill="none" xmlns="http://www.w3.org/2000/svg">
<path d="M12.6655 33.2C14.1567 33.2 15.3655 31.9912 15.3655 30.5C15.3655 29.0088 14.1567 27.8 12.6655 27.8C11.1743 27.8 9.9655 29.0088 9.9655 30.5C9.9655 31.9912 11.1743 33.2 12.6655 33.2Z" fill="black"/>
<path d="M31.5655 33.2C33.0567 33.2 34.2655 31.9912 34.2655 30.5C34.2655 29.0088 33.0567 27.8 31.5655 27.8C30.0743 27.8 28.8655 29.0088 28.8655 30.5C28.8655 31.9912 30.0743 33.2 31.5655 33.2Z" fill="black"/>
<path d="M36.358 5.5908C36.1683 5.35881 35.9294 5.17196 35.6585 5.04383C35.3877 4.91569 35.0917 4.84947 34.792 4.84999H9.11247L8.59525 1.91543C8.5401 1.60284 8.37657 1.31968 8.13339 1.11569C7.8902 0.911701 7.58292 0.799921 7.2655 0.799988H1.8655C1.50746 0.799988 1.16408 0.94222 0.910909 1.19539C0.657735 1.44857 0.515503 1.79195 0.515503 2.14999C0.515503 2.50803 0.657735 2.85141 0.910909 3.10458C1.16408 3.35776 1.50746 3.49999 1.8655 3.49999H6.13319L9.98575 25.3345C10.0409 25.6471 10.2044 25.9303 10.4476 26.1343C10.6908 26.3383 10.9981 26.4501 11.3155 26.45H32.9155C33.2735 26.45 33.6169 26.3078 33.8701 26.0546C34.1233 25.8014 34.2655 25.458 34.2655 25.1C34.2655 24.7419 34.1233 24.3986 33.8701 24.1454C33.6169 23.8922 33.2735 23.75 32.9155 23.75H12.4478L11.9719 21.05H32.362C32.8302 21.0494 33.2838 20.8871 33.646 20.5905C34.0083 20.2939 34.2569 19.8812 34.3499 19.4224L36.7799 7.27239C36.8384 6.97835 36.831 6.67497 36.758 6.38417C36.685 6.09336 36.5484 5.82238 36.358 5.5908Z" fill="black"/>
</svg>
