<svg width="19" height="18" viewBox="0 0 23 22" fill="none" xmlns="http://www.w3.org/2000/svg">
<path d="M7.7369 21.1814C8.66665 21.1814 9.42037 20.4277 9.42037 19.498C9.42037 18.5682 8.66665 17.8145 7.7369 17.8145C6.80714 17.8145 6.05343 18.5682 6.05343 19.498C6.05343 20.4277 6.80714 21.1814 7.7369 21.1814Z" fill="white"/>
<path d="M19.5212 21.1814C20.4509 21.1814 21.2046 20.4277 21.2046 19.498C21.2046 18.5682 20.4509 17.8145 19.5212 17.8145C18.5914 17.8145 17.8377 18.5682 17.8377 19.498C17.8377 20.4277 18.5914 21.1814 19.5212 21.1814Z" fill="white"/>
<path d="M22.5093 3.96693C22.3911 3.82228 22.2421 3.70578 22.0732 3.62589C21.9043 3.54599 21.7198 3.50471 21.5329 3.50503H5.52156L5.19907 1.67531C5.16468 1.48041 5.06272 1.30386 4.91109 1.17667C4.75947 1.04948 4.56787 0.979786 4.36996 0.979828H1.00303C0.779785 0.979828 0.565687 1.06851 0.407831 1.22637C0.249975 1.38422 0.161293 1.59832 0.161293 1.82156C0.161293 2.0448 0.249975 2.2589 0.407831 2.41676C0.565687 2.57461 0.779785 2.6633 1.00303 2.6633H3.66396L6.06606 16.2773C6.10044 16.4722 6.20241 16.6487 6.35403 16.7759C6.50566 16.9031 6.69726 16.9728 6.89516 16.9728H20.3629C20.5861 16.9728 20.8002 16.8841 20.9581 16.7262C21.116 16.5684 21.2046 16.3543 21.2046 16.131C21.2046 15.9078 21.116 15.6937 20.9581 15.5358C20.8002 15.378 20.5861 15.2893 20.3629 15.2893H7.60117L7.30446 13.6058H20.0178C20.3097 13.6055 20.5925 13.5043 20.8184 13.3193C21.0442 13.1344 21.1993 12.8771 21.2572 12.591L22.7724 5.01542C22.8089 4.83208 22.8042 4.64292 22.7587 4.4616C22.7132 4.28028 22.6281 4.11132 22.5093 3.96693Z" fill="white"/>
</svg>
