<svg xmlns="http://www.w3.org/2000/svg" viewBox="0 0 215 36.41"><title>G-Shock logo</title><path d="M419.85,507.55h13.79v18L429,530.1H409.23l-4.73-4.53V498.34l4.43-4.54h19.88l4.62,4.54v7.4h-8.81v-2.92H413.21v18.47h11.5v-4.72h-4.87Zm17.28,9h13.29V507.7H437.13Zm25.69-8.72v-4.94h11.51v2.89h9.06v-7.41l-4.78-4.54H458.38l-4.53,4.64v13.39l4.83,4.77h15.45v4.74H462.72v-2.78h-8.91v7.12l4.68,4.42h20.22l4.73-4.33v-13.2l-4.58-4.78h-16Zm45.57-.1H497V493.8h-9V530.2h9V516.66h11.35V530.2h9V493.8h-9Zm38-13.9,4.73,4.68v27.09l-4.69,4.53h-20L522,525.72V498.53l4.74-4.74h19.63Zm-4.23,8.91H531v18.58h11.16Zm18.38-8.91-4.73,4.54v27.23l4.43,4.53H580.4l4.59-4.53v-9.1h-8.72v4.87h-11.4V502.91h11.36v4.63H585v-9.21l-4.53-4.54Zm59,0h-11l-9.71,13.43V493.8h-9.17v36.3h9.17v-13l9.57,13h10.85L606.56,512,619.5,493.8Z" transform="translate(-404.5 -493.8)"/></svg>