<svg width="1425" height="188" viewBox="0 0 1425 188" fill="none" xmlns="http://www.w3.org/2000/svg">
<path d="M0.564636 2.90578H39.5801L56.9755 132.915H57.4725L74.8679 2.90578H113.883V184.555H88.0387V47.0206H87.5417L67.6612 184.555H44.7987L24.9182 47.0206H24.4212V184.555H0.564636V2.90578Z" fill="#BBBCD0" fill-opacity="0.2"/>
<path d="M155.654 28.8557H127.075V2.90578H211.568V28.8557H182.989V184.555H155.654V28.8557Z" fill="#BBBCD0" fill-opacity="0.2"/>
<path d="M262.599 187.15C249.345 187.15 239.239 183.257 232.281 175.472C225.323 167.515 221.844 156.183 221.844 141.478V45.9826C221.844 31.2777 225.323 20.0327 232.281 12.2477C239.239 4.28977 249.345 0.310791 262.599 0.310791C275.852 0.310791 285.958 4.28977 292.916 12.2477C299.874 20.0327 303.354 31.2777 303.354 45.9826V61.5525H277.509V44.1661C277.509 32.2291 272.787 26.2607 263.344 26.2607C253.901 26.2607 249.179 32.2291 249.179 44.1661V143.554C249.179 155.318 253.901 161.2 263.344 161.2C272.787 161.2 277.509 155.318 277.509 143.554V108.003H263.841V82.0529H303.354V141.478C303.354 156.183 299.874 167.515 292.916 175.472C285.958 183.257 275.852 187.15 262.599 187.15Z" fill="#BBBCD0" fill-opacity="0.2"/>
<path d="M316.928 80.7554H371.599V106.705H316.928V80.7554Z" fill="#BBBCD0" fill-opacity="0.2"/>
<path d="M387.884 2.90578H429.136C443.218 2.90578 453.49 6.36576 459.951 13.2857C466.412 20.0327 469.643 30.4991 469.643 44.6851V51.951C469.643 61.293 468.152 68.905 465.17 74.7869C462.353 80.6689 457.963 84.9074 451.999 87.5024V88.0214C465.584 92.8654 472.376 105.494 472.376 125.908V141.478C472.376 155.491 468.814 166.217 461.691 173.656C454.732 180.922 444.461 184.555 430.876 184.555H387.884V2.90578ZM425.906 76.8629C431.373 76.8629 435.432 75.3924 438.083 72.4515C440.899 69.5105 442.307 64.58 442.307 57.66V47.5396C442.307 40.9656 441.147 36.2081 438.828 33.2671C436.674 30.3262 433.195 28.8557 428.391 28.8557H415.22V76.8629H425.906ZM430.876 158.605C435.68 158.605 439.242 157.308 441.562 154.713C443.881 151.945 445.041 147.274 445.041 140.7V124.87C445.041 116.566 443.633 110.857 440.816 107.743C438.165 104.456 433.692 102.813 427.397 102.813H415.22V158.605H430.876Z" fill="#BBBCD0" fill-opacity="0.2"/>
<path d="M527.121 187.15C513.702 187.15 503.513 183.257 496.555 175.472C489.763 167.688 486.366 156.529 486.366 141.997V127.206H512.211V143.295C512.211 155.232 516.933 161.2 526.376 161.2C531.015 161.2 534.494 159.73 536.813 156.789C539.298 153.675 540.541 148.312 540.541 140.7V125.908C540.541 117.604 539.133 111.722 536.316 108.262C533.5 104.629 528.944 102.813 522.648 102.813H513.454V76.8629H523.394C528.861 76.8629 532.92 75.3924 535.571 72.4515C538.387 69.5105 539.795 64.58 539.795 57.66V44.4256C539.795 38.1976 538.553 33.6131 536.068 30.6721C533.583 27.7312 530.269 26.2607 526.127 26.2607C517.347 26.2607 512.957 31.8832 512.957 43.1281V55.065H487.112V45.4636C487.112 30.9317 490.508 19.7732 497.301 11.9882C504.259 4.20327 514.199 0.310791 527.121 0.310791C540.209 0.310791 550.15 4.20327 556.942 11.9882C563.735 19.6002 567.131 30.6721 567.131 45.2041V51.6916C567.131 61.5525 565.557 69.5105 562.409 75.5654C559.262 81.4474 554.374 85.6859 547.747 88.2809V88.7999C554.871 91.5679 560.007 96.0658 563.155 102.294C566.303 108.522 567.876 116.48 567.876 126.168V142.257C567.876 156.789 564.397 167.947 557.439 175.732C550.647 183.344 540.541 187.15 527.121 187.15Z" fill="#BBBCD0" fill-opacity="0.2"/>
<path d="M627.366 187.15C613.947 187.15 603.675 183.171 596.552 175.213C589.428 167.255 585.866 156.01 585.866 141.478V45.9826C585.866 31.4506 589.428 20.2057 596.552 12.2477C603.675 4.28977 613.947 0.310791 627.366 0.310791C640.786 0.310791 651.057 4.28977 658.181 12.2477C665.305 20.2057 668.867 31.4506 668.867 45.9826V141.478C668.867 156.01 665.305 167.255 658.181 175.213C651.057 183.171 640.786 187.15 627.366 187.15ZM627.366 161.2C636.81 161.2 641.531 155.232 641.531 143.295V44.1661C641.531 32.2291 636.81 26.2607 627.366 26.2607C617.923 26.2607 613.202 32.2291 613.202 44.1661V143.295C613.202 155.232 617.923 161.2 627.366 161.2Z" fill="#BBBCD0" fill-opacity="0.2"/>
<path d="M726.866 187.15C713.447 187.15 703.175 183.171 696.051 175.213C688.927 167.255 685.365 156.01 685.365 141.478V45.9826C685.365 31.4506 688.927 20.2057 696.051 12.2477C703.175 4.28977 713.447 0.310791 726.866 0.310791C740.285 0.310791 750.557 4.28977 757.681 12.2477C764.804 20.2057 768.366 31.4506 768.366 45.9826V141.478C768.366 156.01 764.804 167.255 757.681 175.213C750.557 183.171 740.285 187.15 726.866 187.15ZM726.866 161.2C736.309 161.2 741.031 155.232 741.031 143.295V44.1661C741.031 32.2291 736.309 26.2607 726.866 26.2607C717.423 26.2607 712.701 32.2291 712.701 44.1661V143.295C712.701 155.232 717.423 161.2 726.866 161.2Z" fill="#BBBCD0" fill-opacity="0.2"/>
<path d="M826.365 187.15C812.946 187.15 802.674 183.171 795.55 175.213C788.427 167.255 784.865 156.01 784.865 141.478V45.9826C784.865 31.4506 788.427 20.2057 795.55 12.2477C802.674 4.28977 812.946 0.310791 826.365 0.310791C839.785 0.310791 850.056 4.28977 857.18 12.2477C864.304 20.2057 867.866 31.4506 867.866 45.9826V141.478C867.866 156.01 864.304 167.255 857.18 175.213C850.056 183.171 839.785 187.15 826.365 187.15ZM826.365 161.2C835.808 161.2 840.53 155.232 840.53 143.295V44.1661C840.53 32.2291 835.808 26.2607 826.365 26.2607C816.922 26.2607 812.2 32.2291 812.2 44.1661V143.295C812.2 155.232 816.922 161.2 826.365 161.2Z" fill="#BBBCD0" fill-opacity="0.2"/>
<path d="M961.688 187.15C948.435 187.15 938.412 183.257 931.619 175.472C924.827 167.515 921.43 156.183 921.43 141.478V131.098H947.275V143.554C947.275 155.318 951.997 161.2 961.44 161.2C966.079 161.2 969.558 159.816 971.877 157.048C974.362 154.107 975.605 149.436 975.605 143.035C975.605 135.423 973.948 128.763 970.635 123.054C967.321 117.172 961.191 110.165 952.245 102.034C940.98 91.6544 933.11 82.3124 928.637 74.0084C924.164 65.5315 921.927 56.0165 921.927 45.4636C921.927 31.1047 925.406 20.0327 932.365 12.2477C939.323 4.28977 949.429 0.310791 962.682 0.310791C975.77 0.310791 985.628 4.28977 992.255 12.2477C999.047 20.0327 1002.44 31.2777 1002.44 45.9826V53.5081H976.599V44.1661C976.599 37.9381 975.439 33.4401 973.12 30.6721C970.8 27.7312 967.404 26.2607 962.931 26.2607C953.819 26.2607 949.263 32.0561 949.263 43.6471C949.263 50.2211 950.92 56.3625 954.233 62.0715C957.712 67.7805 963.925 74.7005 972.871 82.8314C984.302 93.2114 992.172 102.64 996.479 111.117C1000.79 119.594 1002.94 129.541 1002.94 140.959C1002.94 155.837 999.378 167.255 992.255 175.213C985.296 183.171 975.108 187.15 961.688 187.15Z" fill="#BBBCD0" fill-opacity="0.2"/>
<path d="M1018.61 2.90578H1093.17V28.8557H1045.95V76.8629H1083.47V102.813H1045.95V158.605H1093.17V184.555H1018.61V2.90578Z" fill="#BBBCD0" fill-opacity="0.2"/>
<path d="M1108.89 2.90578H1149.4C1163.48 2.90578 1173.75 6.36576 1180.21 13.2857C1186.67 20.0327 1189.9 30.4991 1189.9 44.6851V55.8435C1189.9 74.7004 1183.94 86.6374 1172.01 91.6544V92.1734C1178.64 94.2494 1183.28 98.4878 1185.93 104.889C1188.74 111.29 1190.15 119.853 1190.15 130.579V162.498C1190.15 167.688 1190.32 171.926 1190.65 175.213C1190.98 178.327 1191.81 181.441 1193.13 184.555H1165.3C1164.31 181.614 1163.65 178.846 1163.31 176.251C1162.98 173.656 1162.82 168.985 1162.82 162.238V129.022C1162.82 120.718 1161.49 114.923 1158.84 111.636C1156.36 108.349 1151.97 106.705 1145.67 106.705H1136.23V184.555H1108.89V2.90578ZM1146.17 80.7554C1151.63 80.7554 1155.69 79.2849 1158.34 76.3439C1161.16 73.4029 1162.57 68.4725 1162.57 61.5525V47.5396C1162.57 40.9656 1161.41 36.2081 1159.09 33.2671C1156.94 30.3262 1153.46 28.8557 1148.65 28.8557H1136.23V80.7554H1146.17Z" fill="#BBBCD0" fill-opacity="0.2"/>
<path d="M1209.12 2.90578H1236.45V184.555H1209.12V2.90578Z" fill="#BBBCD0" fill-opacity="0.2"/>
<path d="M1256.93 2.90578H1331.48V28.8557H1284.26V76.8629H1321.79V102.813H1284.26V158.605H1331.48V184.555H1256.93V2.90578Z" fill="#BBBCD0" fill-opacity="0.2"/>
<path d="M1383.23 187.15C1369.97 187.15 1359.95 183.257 1353.16 175.472C1346.36 167.515 1342.97 156.183 1342.97 141.478V131.098H1368.81V143.554C1368.81 155.318 1373.53 161.2 1382.98 161.2C1387.62 161.2 1391.1 159.816 1393.41 157.048C1395.9 154.107 1397.14 149.436 1397.14 143.035C1397.14 135.423 1395.49 128.763 1392.17 123.054C1388.86 117.172 1382.73 110.165 1373.78 102.034C1362.52 91.6544 1354.65 82.3124 1350.17 74.0084C1345.7 65.5315 1343.47 56.0165 1343.47 45.4636C1343.47 31.1047 1346.94 20.0327 1353.9 12.2477C1360.86 4.28977 1370.97 0.310791 1384.22 0.310791C1397.31 0.310791 1407.17 4.28977 1413.79 12.2477C1420.58 20.0327 1423.98 31.2777 1423.98 45.9826V53.5081H1398.14V44.1661C1398.14 37.9381 1396.98 33.4401 1394.66 30.6721C1392.34 27.7312 1388.94 26.2607 1384.47 26.2607C1375.36 26.2607 1370.8 32.0561 1370.8 43.6471C1370.8 50.2211 1372.46 56.3625 1375.77 62.0715C1379.25 67.7805 1385.46 74.7005 1394.41 82.8314C1405.84 93.2114 1413.71 102.64 1418.02 111.117C1422.32 119.594 1424.48 129.541 1424.48 140.959C1424.48 155.837 1420.92 167.255 1413.79 175.213C1406.83 183.171 1396.65 187.15 1383.23 187.15Z" fill="#BBBCD0" fill-opacity="0.2"/>
</svg>
